<svg width="612" height="792" viewBox="0 0 612 792" fill="none" xmlns="http://www.w3.org/2000/svg">
<rect width="612" height="792" fill="#333333"/>
<g clip-path="url(#clip0_19_2)">
<rect width="612" height="792" fill="white"/>
<mask id="mask0_19_2" style="mask-type:alpha" maskUnits="userSpaceOnUse" x="0" y="0" width="612" height="792">
<rect width="612" height="792" fill="white"/>
</mask>
<g mask="url(#mask0_19_2)">
<g filter="url(#filter0_f_19_2)">
<circle cx="102" cy="175" r="175" fill="#FB9242"/>
</g>
<g filter="url(#filter1_f_19_2)">
<circle cx="370" cy="59" r="150" fill="#FFD653"/>
</g>
<g filter="url(#filter2_f_19_2)">
<circle cx="648" cy="303" r="225" fill="#05C6EF"/>
</g>
<g filter="url(#filter3_f_19_2)">
<circle cx="20" cy="844" r="200" fill="#F23A46"/>
</g>
<g filter="url(#filter4_f_19_2)">
<circle cx="450" cy="792" r="300" fill="#8667F2"/>
</g>
</g>
<g opacity="0.6" filter="url(#filter5_b_19_2)">
<rect width="612" height="792" fill="white"/>
</g>
<g opacity="0.3">
<line y1="17.9186" x2="612" y2="17.9186" stroke="white"/>
<line y1="36.3372" x2="612" y2="36.3372" stroke="white"/>
<line y1="54.7558" x2="612" y2="54.7558" stroke="white"/>
<line y1="73.1744" x2="612" y2="73.1744" stroke="white"/>
<line y1="91.593" x2="612" y2="91.593" stroke="white"/>
<line y1="110.012" x2="612" y2="110.012" stroke="white"/>
<line y1="128.43" x2="612" y2="128.43" stroke="white"/>
<line y1="146.849" x2="612" y2="146.849" stroke="white"/>
<line y1="165.267" x2="612" y2="165.267" stroke="white"/>
<line y1="183.686" x2="612" y2="183.686" stroke="white"/>
<line y1="202.105" x2="612" y2="202.105" stroke="white"/>
<line y1="220.523" x2="612" y2="220.523" stroke="white"/>
<line y1="238.942" x2="612" y2="238.942" stroke="white"/>
<line y1="257.36" x2="612" y2="257.36" stroke="white"/>
<line y1="275.779" x2="612" y2="275.779" stroke="white"/>
<line y1="294.198" x2="612" y2="294.198" stroke="white"/>
<line y1="312.616" x2="612" y2="312.616" stroke="white"/>
<line y1="331.035" x2="612" y2="331.035" stroke="white"/>
<line y1="349.454" x2="612" y2="349.454" stroke="white"/>
<line y1="367.872" x2="612" y2="367.872" stroke="white"/>
<line y1="386.291" x2="612" y2="386.291" stroke="white"/>
<line y1="404.709" x2="612" y2="404.709" stroke="white"/>
<line y1="423.128" x2="612" y2="423.128" stroke="white"/>
<line y1="441.547" x2="612" y2="441.547" stroke="white"/>
<line y1="459.965" x2="612" y2="459.965" stroke="white"/>
<line y1="478.384" x2="612" y2="478.384" stroke="white"/>
<line y1="496.802" x2="612" y2="496.802" stroke="white"/>
<line y1="515.221" x2="612" y2="515.221" stroke="white"/>
<line y1="533.64" x2="612" y2="533.64" stroke="white"/>
<line y1="552.058" x2="612" y2="552.058" stroke="white"/>
<line y1="570.477" x2="612" y2="570.477" stroke="white"/>
<line y1="588.895" x2="612" y2="588.895" stroke="white"/>
<line y1="607.314" x2="612" y2="607.314" stroke="white"/>
<line y1="625.732" x2="612" y2="625.732" stroke="white"/>
<line y1="644.151" x2="612" y2="644.151" stroke="white"/>
<line y1="662.57" x2="612" y2="662.57" stroke="white"/>
<line y1="680.988" x2="612" y2="680.988" stroke="white"/>
<line y1="699.407" x2="612" y2="699.407" stroke="white"/>
<line y1="717.825" x2="612" y2="717.825" stroke="white"/>
<line y1="736.244" x2="612" y2="736.244" stroke="white"/>
<line y1="754.663" x2="612" y2="754.663" stroke="white"/>
<line y1="773.081" x2="612" y2="773.081" stroke="white"/>
<line y1="791.5" x2="612" y2="791.5" stroke="white"/>
</g>
<g opacity="0.3">
<line x1="0.5" x2="0.5" y2="792" stroke="white"/>
<line x1="19.0455" x2="19.0455" y2="792" stroke="white"/>
<line x1="37.5909" x2="37.5909" y2="792" stroke="white"/>
<line x1="56.1364" x2="56.1364" y2="792" stroke="white"/>
<line x1="74.6818" x2="74.6818" y2="792" stroke="white"/>
<line x1="93.2273" x2="93.2273" y2="792" stroke="white"/>
<line x1="111.773" x2="111.773" y2="792" stroke="white"/>
<line x1="130.318" x2="130.318" y2="792" stroke="white"/>
<line x1="148.864" x2="148.864" y2="792" stroke="white"/>
<line x1="167.409" x2="167.409" y2="792" stroke="white"/>
<line x1="185.955" x2="185.955" y2="792" stroke="white"/>
<line x1="204.5" x2="204.5" y2="792" stroke="white"/>
<line x1="223.045" x2="223.045" y2="792" stroke="white"/>
<line x1="241.591" x2="241.591" y2="792" stroke="white"/>
<line x1="260.136" x2="260.136" y2="792" stroke="white"/>
<line x1="278.682" x2="278.682" y2="792" stroke="white"/>
<line x1="297.227" x2="297.227" y2="792" stroke="white"/>
<line x1="315.773" x2="315.773" y2="792" stroke="white"/>
<line x1="334.318" x2="334.318" y2="792" stroke="white"/>
<line x1="352.864" x2="352.864" y2="792" stroke="white"/>
<line x1="371.409" x2="371.409" y2="792" stroke="white"/>
<line x1="389.954" x2="389.954" y2="792" stroke="white"/>
<line x1="408.5" x2="408.5" y2="792" stroke="white"/>
<line x1="427.045" x2="427.045" y2="792" stroke="white"/>
<line x1="445.591" x2="445.591" y2="792" stroke="white"/>
<line x1="464.136" x2="464.136" y2="792" stroke="white"/>
<line x1="482.682" x2="482.682" y2="792" stroke="white"/>
<line x1="501.227" x2="501.227" y2="792" stroke="white"/>
<line x1="519.773" x2="519.773" y2="792" stroke="white"/>
<line x1="538.318" x2="538.318" y2="792" stroke="white"/>
<line x1="556.863" x2="556.863" y2="792" stroke="white"/>
<line x1="575.409" x2="575.409" y2="792" stroke="white"/>
<line x1="593.954" x2="593.954" y2="792" stroke="white"/>
</g>
</g>
<defs>
<filter id="filter0_f_19_2" x="-323" y="-250" width="850" height="850" filterUnits="userSpaceOnUse" color-interpolation-filters="sRGB">
<feFlood flood-opacity="0" result="BackgroundImageFix"/>
<feBlend mode="normal" in="SourceGraphic" in2="BackgroundImageFix" result="shape"/>
<feGaussianBlur stdDeviation="125" result="effect1_foregroundBlur_19_2"/>
</filter>
<filter id="filter1_f_19_2" x="-30" y="-341" width="800" height="800" filterUnits="userSpaceOnUse" color-interpolation-filters="sRGB">
<feFlood flood-opacity="0" result="BackgroundImageFix"/>
<feBlend mode="normal" in="SourceGraphic" in2="BackgroundImageFix" result="shape"/>
<feGaussianBlur stdDeviation="125" result="effect1_foregroundBlur_19_2"/>
</filter>
<filter id="filter2_f_19_2" x="173" y="-172" width="950" height="950" filterUnits="userSpaceOnUse" color-interpolation-filters="sRGB">
<feFlood flood-opacity="0" result="BackgroundImageFix"/>
<feBlend mode="normal" in="SourceGraphic" in2="BackgroundImageFix" result="shape"/>
<feGaussianBlur stdDeviation="125" result="effect1_foregroundBlur_19_2"/>
</filter>
<filter id="filter3_f_19_2" x="-430" y="394" width="900" height="900" filterUnits="userSpaceOnUse" color-interpolation-filters="sRGB">
<feFlood flood-opacity="0" result="BackgroundImageFix"/>
<feBlend mode="normal" in="SourceGraphic" in2="BackgroundImageFix" result="shape"/>
<feGaussianBlur stdDeviation="125" result="effect1_foregroundBlur_19_2"/>
</filter>
<filter id="filter4_f_19_2" x="-138.018" y="203.982" width="1176.04" height="1176.04" filterUnits="userSpaceOnUse" color-interpolation-filters="sRGB">
<feFlood flood-opacity="0" result="BackgroundImageFix"/>
<feBlend mode="normal" in="SourceGraphic" in2="BackgroundImageFix" result="shape"/>
<feGaussianBlur stdDeviation="144.009" result="effect1_foregroundBlur_19_2"/>
</filter>
<filter id="filter5_b_19_2" x="-600" y="-600" width="1812" height="1992" filterUnits="userSpaceOnUse" color-interpolation-filters="sRGB">
<feFlood flood-opacity="0" result="BackgroundImageFix"/>
<feGaussianBlur in="BackgroundImageFix" stdDeviation="300"/>
<feComposite in2="SourceAlpha" operator="in" result="effect1_backgroundBlur_19_2"/>
<feBlend mode="normal" in="SourceGraphic" in2="effect1_backgroundBlur_19_2" result="shape"/>
</filter>
<clipPath id="clip0_19_2">
<rect width="612" height="792" fill="white"/>
</clipPath>
</defs>
</svg>
