<svg xmlns="http://www.w3.org/2000/svg" version="1.0" width="128.000000pt" height="128.000000pt" viewBox="0 0 128.000000 128.000000" preserveAspectRatio="xMidYMid meet">

<g transform="translate(0.000000,128.000000) scale(0.100000,-0.100000)" fill="#000000" stroke="none">
<path d="M567 940 c-63 -16 -112 -47 -158 -98 -53 -59 -79 -127 -79 -207 0 -82 26 -149 82 -211 65 -70 129 -98 228 -98 99 0 163 28 228 98 56 62 82 129 82 211 0 33 -8 82 -17 109 -24 66 -99 148 -162 175 -58 25 -150 34 -204 21z"/>
</g>
</svg>