<svg
  xmlns="http://www.w3.org/2000/svg"
  width="119"
  height="50"
  viewBox="0 0 119 50"
>
  <title>Group 2</title>
  <g fill="none" fill-rule="evenodd">
    <path
      d="M.614 41.24c0-1.024.302-1.805.906-2.34.604-.536 1.327-.803 2.17-.803.752 0 1.43.28 2.034.837.604.558.906 1.26.906 2.102 0 .798-.342 1.584-1.026 2.36 1.504 1.502 3.487 2.254 5.948 2.254 1.162 0 2.176-.2 3.042-.598.866-.4 1.52-.923 1.965-1.572.443-.65.757-1.185.94-1.606.18-.422.318-.85.41-1.282.136-.843.204-1.652.204-2.427V5.25h-8.1V1.183h17.84V5.25h-4.68v33.052c0 2.187-.366 4.06-1.095 5.622-.73 1.56-1.698 2.752-2.906 3.572-1.208.82-2.433 1.407-3.674 1.76-1.242.354-2.513.53-3.812.53-3.167 0-5.804-.843-7.912-2.53-2.108-1.685-3.162-3.69-3.162-6.015z"
      fill="#009CE8"
    />
    <path
      d="M56.36 20.205c-.272 2.882-1.336 5.13-3.19 6.745-1.857 1.614-4.324 2.42-7.404 2.42-2.153 0-4.048-.51-5.687-1.53-1.64-1.02-2.905-2.47-3.796-4.35-.89-1.88-1.354-4.064-1.39-6.55v-2.524c0-2.548.45-4.793 1.353-6.735.903-1.94 2.2-3.438 3.887-4.49 1.69-1.05 3.64-1.577 5.854-1.577 2.98 0 5.38.81 7.2 2.43 1.818 1.62 2.875 3.91 3.172 6.866h-4.675c-.223-1.943-.79-3.344-1.698-4.203-.91-.86-2.242-1.29-4-1.29-2.04 0-3.608.745-4.702 2.236-1.095 1.49-1.655 3.677-1.68 6.56v2.392c0 2.92.523 5.146 1.568 6.68 1.046 1.534 2.576 2.3 4.593 2.3 1.843 0 3.228-.413 4.156-1.242.928-.83 1.515-2.208 1.763-4.138h4.675zM72.113 29c-.198-.383-.37-1.008-.52-1.874-1.434 1.497-3.19 2.245-5.27 2.245-2.015 0-3.66-.574-4.934-1.724-1.275-1.15-1.912-2.573-1.912-4.268 0-2.14.794-3.782 2.384-4.926 1.59-1.145 3.862-1.717 6.82-1.717h2.763v-1.317c0-1.04-.29-1.87-.872-2.496-.58-.624-1.466-.937-2.653-.937-1.027 0-1.868.257-2.524.77-.655.514-.983 1.166-.983 1.958h-4.51c0-1.1.366-2.13 1.096-3.09.73-.958 1.722-1.71 2.977-2.254 1.256-.545 2.656-.817 4.203-.817 2.35 0 4.224.59 5.622 1.772 1.398 1.18 2.115 2.842 2.152 4.982v9.054c0 1.807.254 3.248.76 4.325V29h-4.6zm-4.954-3.247c.89 0 1.728-.217 2.513-.65.786-.432 1.376-1.014 1.772-1.744v-3.786h-2.43c-1.67 0-2.926.29-3.767.872-.84.582-1.262 1.404-1.262 2.468 0 .866.288 1.556.863 2.07.574.512 1.344.77 2.31.77zm24.77-2.208c0-.804-.33-1.416-.993-1.837-.662-.42-1.76-.792-3.293-1.113-1.534-.322-2.815-.73-3.84-1.225-2.253-1.088-3.378-2.666-3.378-4.73 0-1.733.73-3.18 2.19-4.343 1.46-1.163 3.314-1.744 5.566-1.744 2.4 0 4.338.593 5.817 1.78 1.477 1.188 2.216 2.73 2.216 4.62h-4.51c0-.865-.32-1.585-.964-2.16-.643-.576-1.497-.863-2.56-.863-.99 0-1.797.23-2.422.686-.624.458-.937 1.07-.937 1.837 0 .693.29 1.23.872 1.614.582.384 1.757.77 3.526 1.16 1.77.39 3.158.854 4.166 1.392 1.008.537 1.757 1.183 2.245 1.938.49.754.734 1.67.734 2.746 0 1.806-.748 3.268-2.245 4.388-1.498 1.12-3.458 1.68-5.883 1.68-1.645 0-3.11-.298-4.397-.892-1.287-.593-2.29-1.41-3.006-2.45-.717-1.038-1.076-2.157-1.076-3.357h4.38c.06 1.064.463 1.883 1.205 2.458.742.577 1.725.864 2.95.864 1.187 0 2.09-.226 2.71-.677.617-.452.927-1.042.927-1.772zm12.802-12.432c1.472-1.707 3.334-2.56 5.585-2.56 4.28 0 6.45 2.443 6.513 7.33V29h-4.51V16.05c0-1.387-.3-2.367-.9-2.942-.6-.575-1.48-.863-2.643-.863-1.806 0-3.154.804-4.045 2.412V29h-4.508V.5h4.508v10.613zM41.61 43.703h-4.376V49h-.89V37.625h5.922v.844h-5.032v4.39h4.375v.843zM44.97 49h-.876v-8.453h.875V49zm-1-10.89c0-.178.048-.33.147-.454.1-.125.24-.187.422-.187.18 0 .323.06.425.186.1.125.152.276.152.453 0 .176-.05.326-.152.45-.102.12-.244.182-.426.182-.183 0-.324-.06-.423-.183-.1-.124-.148-.274-.148-.45zm4.225 2.437l.024 1.344c.25-.458.568-.822.956-1.093.388-.27.83-.406 1.324-.406.354 0 .67.058.95.172.278.115.515.297.71.547.195.25.345.57.45.964.104.393.156.87.156 1.426V49h-.86v-5.508c0-.432-.038-.794-.113-1.086-.076-.29-.184-.524-.324-.7-.142-.173-.312-.298-.513-.374-.2-.075-.426-.113-.676-.113-.26 0-.497.052-.714.16-.216.106-.41.248-.582.425s-.32.38-.445.61c-.126.228-.227.468-.306.718V49h-.867v-8.453h.828zM59.54 49c-.043-.14-.076-.316-.102-.527-.027-.21-.045-.426-.055-.645-.11.177-.24.345-.39.504-.152.16-.325.3-.52.422-.196.122-.413.22-.653.293-.24.073-.497.11-.773.11-.35 0-.665-.05-.95-.15-.283-.098-.527-.247-.73-.444-.203-.198-.36-.446-.47-.743-.108-.297-.163-.643-.163-1.04 0-.39.068-.75.203-1.08.136-.332.338-.617.606-.856.268-.24.603-.427 1.004-.563.4-.134.867-.202 1.398-.202h1.43v-1.18c0-.604-.15-1.037-.45-1.3-.3-.263-.737-.395-1.316-.395-.27 0-.52.042-.747.125-.226.083-.42.2-.582.348-.16.148-.285.325-.374.53-.088.207-.133.432-.133.677l-.867-.008c0-.328.065-.642.196-.94.13-.3.315-.565.554-.794.24-.23.53-.41.867-.546.34-.136.714-.203 1.125-.203.38 0 .728.046 1.043.137.317.09.59.237.818.438.23.2.407.46.535.78.128.32.19.71.19 1.17v4.312c0 .145.007.296.017.453.01.156.025.308.043.457.018.148.042.29.07.422.03.13.06.247.098.346V49h-.92zm-2.384-.68c.27 0 .525-.037.762-.113.237-.075.45-.18.637-.312.187-.133.35-.288.488-.465.138-.177.25-.367.332-.57v-2.055H58.07c-.817 0-1.432.172-1.843.515-.412.344-.618.808-.618 1.39 0 .558.136.966.41 1.224.273.257.652.386 1.136.386zm6.274-7.773l.023 1.344c.25-.458.57-.822.957-1.093.388-.27.83-.406 1.324-.406.355 0 .67.058.95.172.278.115.515.297.71.547.196.25.346.57.45.964.104.393.156.87.156 1.426V49h-.86v-5.508c0-.432-.037-.794-.113-1.086-.075-.29-.183-.524-.324-.7-.14-.173-.31-.298-.512-.374-.2-.075-.424-.113-.674-.113-.26 0-.5.052-.715.16-.215.106-.41.248-.58.425-.173.177-.322.38-.447.61-.125.228-.226.468-.304.718V49H62.6v-8.453h.828zm9.547 7.805c.24 0 .47-.032.695-.094.224-.063.423-.17.598-.32.174-.152.317-.353.43-.606.11-.253.175-.57.19-.95h.837c-.02.454-.107.854-.258 1.2-.152.346-.353.635-.603.867-.25.23-.536.407-.86.527-.322.12-.666.18-1.03.18-1.016 0-1.78-.33-2.293-.985-.513-.656-.77-1.63-.77-2.922v-.953c0-1.292.257-2.266.77-2.922.513-.656 1.274-.984 2.285-.984.384 0 .742.062 1.073.184.33.123.617.308.86.555.242.246.436.56.58.936.147.378.228.822.244 1.332h-.836c-.015-.39-.075-.725-.18-1.003-.103-.28-.24-.507-.41-.684-.168-.176-.366-.305-.593-.386-.227-.08-.473-.12-.738-.12-.402 0-.74.068-1.017.206-.276.138-.5.34-.672.606-.17.265-.296.59-.374.972-.078.383-.117.82-.117 1.31v.952c0 .495.037.935.112 1.32.076.386.2.71.37.973.173.263.4.464.677.602.278.138.62.207 1.027.207zM78.53 49h-.874v-8.453h.875V49zm-1-10.89c0-.178.05-.33.15-.454.1-.125.24-.187.422-.187s.324.06.425.186c.102.125.153.276.153.453 0 .176-.05.326-.153.45-.1.12-.243.182-.425.182-.183 0-.323-.06-.422-.183-.1-.124-.15-.274-.15-.45zM85.4 49c-.04-.14-.075-.316-.1-.527-.027-.21-.045-.426-.056-.645-.11.177-.24.345-.39.504-.15.16-.325.3-.52.422s-.413.22-.652.293c-.24.073-.498.11-.774.11-.35 0-.665-.05-.95-.15-.283-.098-.526-.247-.73-.444-.203-.198-.36-.446-.468-.743-.11-.297-.164-.643-.164-1.04 0-.39.067-.75.203-1.08.135-.332.337-.617.605-.856.27-.24.603-.427 1.004-.563.4-.134.867-.202 1.4-.202h1.428v-1.18c0-.604-.15-1.037-.45-1.3-.298-.263-.737-.395-1.315-.395-.272 0-.52.042-.747.125-.227.083-.42.2-.582.348-.16.148-.286.325-.374.53-.09.207-.133.432-.133.677l-.867-.008c0-.328.065-.642.195-.94.13-.3.316-.565.556-.794.24-.23.528-.41.867-.546.338-.136.713-.203 1.125-.203.38 0 .728.046 1.043.137.316.09.588.237.817.438.23.2.408.46.535.78.128.32.192.71.192 1.17v4.312c0 .145.005.296.015.453.01.156.024.308.042.457.02.148.042.29.07.422.03.13.062.247.098.346V49h-.922zm-2.382-.68c.27 0 .524-.037.76-.113.238-.075.45-.18.638-.312.188-.133.35-.288.488-.465.138-.177.25-.367.332-.57v-2.055H83.93c-.818 0-1.433.172-1.844.515-.412.344-.617.808-.617 1.39 0 .558.135.966.41 1.224.272.257.65.386 1.136.386zm6.414.68h-.875V37h.875v12zm10.218-2.078c0-.172-.032-.333-.097-.484-.064-.152-.17-.297-.32-.438-.148-.14-.343-.284-.585-.43-.243-.146-.543-.302-.903-.468-.385-.172-.73-.338-1.03-.497-.303-.158-.557-.33-.763-.515-.207-.185-.364-.393-.473-.625-.11-.232-.165-.507-.165-.824 0-.312.06-.605.176-.878.117-.274.285-.512.504-.715.22-.203.485-.363.797-.48.312-.118.66-.176 1.046-.176.41 0 .78.062 1.11.184.327.123.605.293.83.512.228.22.4.48.52.785.12.306.18.638.18.997h-.867c0-.22-.04-.428-.118-.63-.078-.2-.193-.376-.344-.53-.15-.154-.335-.276-.554-.367-.22-.09-.472-.137-.758-.137-.297 0-.55.04-.758.12-.208.082-.38.19-.516.322-.135.132-.234.283-.296.453-.063.17-.094.34-.094.51 0 .173.026.326.078.458.052.133.147.262.285.387.138.125.324.254.56.387.233.133.535.288.905.465.39.172.742.338 1.055.5.312.16.577.34.793.535.216.195.382.415.5.66.117.245.175.536.175.875 0 .35-.062.664-.187.945-.125.282-.303.52-.535.72-.23.197-.51.35-.835.456-.326.107-.686.16-1.082.16-.46 0-.862-.066-1.21-.2-.35-.132-.643-.31-.88-.534-.237-.224-.417-.484-.54-.78-.12-.298-.183-.613-.183-.947h.875c.016.334.085.607.207.82.123.214.275.383.457.508s.385.21.61.258c.223.048.444.072.663.072.286 0 .54-.038.762-.114.22-.075.406-.177.554-.304.148-.128.26-.28.335-.454.076-.174.113-.36.113-.558zm2.586-2.578c0-.64.076-1.206.227-1.696.152-.49.363-.902.634-1.238.27-.336.595-.59.972-.762.378-.17.796-.257 1.254-.257.464 0 .886.087 1.266.258.38.172.706.426.977.762.27.336.48.75.628 1.238.15.49.224 1.055.224 1.696v.875c0 .64-.074 1.204-.223 1.694-.147.49-.357.9-.627 1.23-.27.33-.596.583-.973.754-.378.172-.796.258-1.254.258-.464 0-.885-.086-1.266-.258-.38-.17-.705-.423-.976-.753-.27-.33-.482-.74-.633-1.23-.15-.49-.226-1.056-.226-1.696v-.876zm.875.875c0 .483.05.918.148 1.303.1.386.243.714.433.985.192.27.425.48.7.625.277.146.592.22.946.22.375 0 .7-.074.977-.22.276-.146.505-.354.687-.625.182-.27.32-.6.41-.985.09-.385.137-.82.137-1.304v-.876c0-.474-.05-.905-.15-1.293-.098-.387-.242-.718-.432-.99-.19-.275-.423-.486-.7-.634-.275-.15-.59-.223-.945-.223-.35 0-.66.074-.933.223-.274.148-.505.36-.696.633-.19.272-.333.603-.432.99-.1.39-.15.82-.15 1.294v.875zm7.874 3.78v-7.672h-1.164v-.78h1.164v-1.04c0-.865.19-1.526.57-1.985.38-.458.907-.687 1.58-.687.134 0 .274.01.417.03.144.022.283.056.42.103l-.064.796c-.104-.026-.213-.047-.328-.063-.114-.016-.24-.023-.375-.023-.422 0-.75.157-.988.472-.237.315-.356.767-.356 1.356v1.04h1.656v.78h-1.657V49h-.876zm5.54-10.61v2.157h1.445v.78h-1.447v5.618c0 .292.025.528.075.707.05.18.116.32.2.418.082.1.177.166.284.2.107.033.22.05.34.05.114 0 .226-.01.336-.027l.29-.05.022.78c-.093.042-.217.075-.37.098-.154.025-.315.036-.48.036-.225 0-.432-.036-.622-.11-.19-.072-.356-.194-.496-.366s-.25-.4-.33-.684c-.077-.284-.116-.637-.116-1.06V41.33h-1.304v-.78h1.304V38.39h.867z"
      fill="#333"
    />
  </g>
</svg>
