<svg xmlns="http://www.w3.org/2000/svg" width="121" height="71" fill="none">
  <path
    d="M88.046 61.276c0 2.112 1.308 3.456 2.94 3.456.996 0 1.704-.456 2.076-1.044v.948h2.052V57.94h-2.052v.948c-.36-.588-1.068-1.044-2.064-1.044-1.644 0-2.952 1.32-2.952 3.432Zm5.016.012c0 1.068-.684 1.656-1.464 1.656-.768 0-1.464-.6-1.464-1.668s.696-1.644 1.464-1.644c.78 0 1.464.588 1.464 1.656Zm5.589-2.4v-.948h-2.052v9.888h2.052V63.7c.372.564 1.08 1.032 2.064 1.032 1.644 0 2.952-1.344 2.952-3.456s-1.308-3.432-2.952-3.432c-.984 0-1.692.456-2.064 1.044Zm2.928 2.388c0 1.068-.696 1.668-1.476 1.668-.768 0-1.464-.588-1.464-1.656s.696-1.656 1.464-1.656c.78 0 1.476.576 1.476 1.644Zm5.216-2.388v-.948h-2.052v9.888h2.052V63.7c.372.564 1.08 1.032 2.064 1.032 1.644 0 2.952-1.344 2.952-3.456s-1.308-3.432-2.952-3.432c-.984 0-1.692.456-2.064 1.044Zm2.928 2.388c0 1.068-.696 1.668-1.476 1.668-.768 0-1.464-.588-1.464-1.656s.696-1.656 1.464-1.656c.78 0 1.476.576 1.476 1.644Zm8.601 1.416c-.036-2.496-3.66-1.74-3.66-2.808 0-.324.264-.516.744-.516.576 0 .924.3.984.756h1.896c-.132-1.32-1.092-2.28-2.82-2.28-1.752 0-2.724.936-2.724 2.076 0 2.46 3.648 1.68 3.648 2.76 0 .3-.276.54-.804.54-.564 0-.984-.312-1.032-.78h-2.028c.096 1.296 1.296 2.292 3.084 2.292 1.68 0 2.712-.876 2.712-2.04Z"
    fill="#A8DFF6"
  />
  <path
    d="M9.682 41.373a2 2 0 0 1 2-2h5.682a2 2 0 0 1 2 2V47.054a2 2 0 0 1-2 2h-5.682a2 2 0 0 1-2-2v-5.681Z"
    fill="#A8DFF7"
  />
  <path
    d="M5.164 27.818a2 2 0 0 1 2-2h10.2a2 2 0 0 1 2 2V33.5a2 2 0 0 1-2 2h-10.2a2 2 0 0 1-2-2v-5.682Z"
    fill="#67D7F4"
  />
  <path
    d="M1.569 15.205c-.71-1.332.254-2.941 1.764-2.941h14.03a2 2 0 0 1 2 2v5.681a2 2 0 0 1-2 2H3.334c-1.51 0-2.475-1.608-1.764-2.94l.51-.96a2 2 0 0 0 0-1.882l-.51-.958Z"
    fill="#149BFF"
  />
  <path
    fill-rule="evenodd"
    clip-rule="evenodd"
    d="M99.493 13.506c-.704.412-2.677.13-2.862-.664a.749.749 0 0 0-.73-.578h-8.41a1 1 0 0 0-1 1v37.372a1 1 0 0 0 1 1H96.464a1 1 0 0 0 1-1V25.022c0-.211.065-.42.197-.584 2.102-2.625 5.408-2.808 7.438-2.519.691.099 1.401-.415 1.401-1.112v-7.173c0-.41-.25-.778-.651-.863-1.467-.31-4.363-.432-6.356.735Z"
    fill="#149BFF"
  />
  <path
    d="M120.055 13.264a1 1 0 0 0-1-1h-8.973a1 1 0 0 0-1 1v37.372a1 1 0 0 0 1 1h8.973a1 1 0 0 0 1-1V13.264ZM109.727 4.518a4.518 4.518 0 0 0 4.518 4.518h.646a4.518 4.518 0 0 0 0-9.036h-.646a4.518 4.518 0 0 0-4.518 4.518ZM44.536 31.95c0 11.073 8.796 19.686 19.687 19.686 10.89 0 19.686-8.613 19.686-19.686 0-11.074-8.796-19.686-19.686-19.686S44.536 20.876 44.536 31.95Zm28.064 0c0 5.742-3.77 9.433-8.377 9.433-4.608 0-8.377-3.691-8.377-9.433s3.77-9.433 8.377-9.433c4.607 0 8.377 3.691 8.377 9.433Z"
    fill="#149BFF"
  />
  <path
    fill-rule="evenodd"
    clip-rule="evenodd"
    d="M33.486 1.256a1 1 0 0 0-1.23-.966L23.36 2.4a1 1 0 0 0-.77.972V40.13c0 6.627 4.953 11.507 11.557 11.507 3.255 0 5.732-.531 7.277-1.216a.92.92 0 0 0 .53-.854v-7.01c0-.71-.726-1.21-1.415-1.04-2.513.622-6.975.903-6.975-4.402V22.946a1 1 0 0 1 1-1h6.39a1 1 0 0 0 1-1v-7.682a1 1 0 0 0-1-1h-6.397a1 1 0 0 1-1-.993l-.07-10.015Z"
    fill="#149BFF"
  />
</svg>
